<svg width="28" height="28" viewBox="0 0 16 16" fill="none" xmlns="http://www.w3.org/2000/svg">
<g id="Aria_Native">
<path d="M0 2C0 0.895431 0.895431 0 2 0H14C15.1046 0 16 0.895431 16 2V14C16 15.1046 15.1046 16 14 16H2C0.895431 16 0 15.1046 0 14V2Z" fill="#FA1E4E"/>
<g id="Group">
<path id="Vector" d="M9.45557 5.24764L8.47985 3.76192C8.2969 3.48679 7.87003 3.48679 7.6261 3.76192L3.60128 10.09C3.5403 10.255 3.5403 10.4201 3.60128 10.5302L4.57699 12.0159C4.75994 12.291 5.2478 12.291 5.43074 12.0159L9.45557 5.68785C9.57753 5.57779 9.57753 5.41272 9.45557 5.24764Z" fill="#F4F3F7"/>
<path id="Vector_2" d="M9.15067 7.88892H8.96773C8.60183 7.88892 8.3579 8.2741 8.54085 8.54923L10.7362 11.9609C10.9192 12.236 11.407 12.291 11.59 11.9609L12.5657 10.4752C12.6876 10.3101 12.6876 10.145 12.5657 10.0349L12.1388 9.42966C11.529 8.49421 10.3703 7.88892 9.15067 7.88892Z" fill="#F4F3F7"/>
</g>
</g>
</svg>
