<svg width="28" height="28" viewBox="0 0 16 16" fill="none" xmlns="http://www.w3.org/2000/svg">
<path d="M0 8C0 3.58172 3.58172 0 8 0C12.4183 0 16 3.58172 16 8C16 12.4183 12.4183 16 8 16C3.58172 16 0 12.4183 0 8Z" fill="white" fill-opacity="0.9"/>
<path d="M9.45569 5.24764L8.47997 3.76192C8.29703 3.48679 7.87015 3.48679 7.62622 3.76192L3.6014 10.09C3.54042 10.255 3.54042 10.4201 3.6014 10.5302L4.57712 12.0159C4.76006 12.291 5.24792 12.291 5.43087 12.0159L9.45569 5.68785C9.57765 5.57779 9.57765 5.41272 9.45569 5.24764Z" fill="#111111"/>
<path d="M9.15079 7.88892H8.96785C8.60196 7.88892 8.35803 8.2741 8.54097 8.54923L10.7363 11.9609C10.9193 12.236 11.4071 12.291 11.5901 11.9609L12.5658 10.4752C12.6878 10.3101 12.6878 10.145 12.5658 10.0349L12.1389 9.42966C11.5291 8.49421 10.3704 7.88892 9.15079 7.88892Z" fill="#111111"/>
</svg>
