<svg xmlns="http://www.w3.org/2000/svg" width="216" height="64" viewBox="0 0 216 64">
  <g fill="none" fill-rule="evenodd">
    <rect width="215" height="62.883" x=".5" y=".5" fill="#FFF" stroke="#000" stroke-opacity=".1" rx="7.286"/>
    <path fill="#000" fill-rule="nonzero" d="M16,49.2637152 L16,14.7403058 C16,13.5355809 16.6984406,12.4942128 17.7119977,12 L37.6821408,31.9961212 L17.7039662,52 C16.6947493,51.5042845 16,50.4653329 16,49.2637152 Z M44.0177352,38.3396961 L22.1816563,50.9630792 L39.4032451,33.7192455 L44.0177352,38.3396961 Z M50.8052056,29.5817164 C51.531493,30.1383556 52,31.0154533 52,32.0020105 C52,32.9737429 51.5456901,33.839062 50.838062,34.3967166 L46.1998423,37.0781701 L41.1241465,31.9961212 L46.1963944,26.9172809 L50.8052056,29.5817164 Z M22.1944541,13.0418962 L44.0142873,25.6558361 L39.4032451,30.2727938 L22.1944541,13.0418962 Z"/>
    <g fill="#000" transform="translate(66.238 10.764)">
      <path d="M48.2259583 10.4727273C45.3378842 10.4727273 42.9966375 8.12832742 42.9966375 5.23636364 42.9966375 2.34439986 45.3378842 0 48.2259583 0 51.1140324 0 53.4552791 2.34439986 53.4552791 5.23636364 53.4552791 8.12832742 51.1140324 10.4727273 48.2259583 10.4727273zM48.2259583 8.87272727C50.2315653 8.87272727 51.8574311 7.24467182 51.8574311 5.23636364 51.8574311 3.22805546 50.2315653 1.6 48.2259583 1.6 46.2203513 1.6 44.5944855 3.22805546 44.5944855 5.23636364 44.5944855 7.24467182 46.2203513 8.87272727 48.2259583 8.87272727zM12.7827841 5.81818182L12.7827841 9.01818182 16.9952925 9.01818182 16.9952925 10.1818182 12.7827841 10.1818182 11.1849361 10.1818182 11.1849361.581818182 11.1849361.436363636 16.9952925.436363636 16.9952925 1.6 12.7827841 1.6 12.7827841 4.65454545 16.5595158 4.65454545 16.5595158 5.81818182 12.7827841 5.81818182zM22.66039 1.6L22.66039 10.1818182 21.062542 10.1818182 21.062542 1.6 18.5931406 1.6 18.5931406.436363636 25.1297915.436363636 25.1297915 1.6 22.66039 1.6zM36.8957633 1.6L36.8957633 10.1818182 35.2979153 10.1818182 35.2979153 1.6 32.8285138 1.6 32.8285138.436363636 39.3651648.436363636 39.3651648 1.6 36.8957633 1.6z"/>
      <rect width="1.598" height="9.745" x="29.778" y=".436"/>
      <path d="M56.3604573,0.436363636 L56.6509751,0.436363636 L61.0087424,7.56718404 L61.0087424,0.436363636 L62.6065905,0.436363636 L62.6065905,10.1818182 L61.0087424,10.1818182 L56.3604573,2.57560976 L56.3604573,10.1818182 L54.7626093,10.1818182 L54.7626093,0.436363636 L56.3604573,0.436363636 Z"/>
      <g transform="translate(0 .145)">
        <polygon points="5.198 4.679 9.573 4.679 9.529 6.066 5.198 6.066"/>
        <path d="M8.71178449,1.41709509 L7.71069706,2.41844681 C7.08628879,1.77986158 6.19944283,1.42978272 5.17617997,1.42978272 C3.13081587,1.42978272 1.47272066,3.08831569 1.47272066,5.13421978 C1.47272066,7.18012387 3.13081587,8.83865684 5.17617997,8.83865684 C7.22154407,8.83865684 8.67372234,7.65588736 8.67067673,5.13421978 C8.67413607,4.97838237 8.67050805,4.82668814 8.66010338,4.67928891 L9.93802425,4.67928891 C9.93816924,4.6964325 9.93824185,4.71361095 9.93824185,4.73082405 C10.4189403,8.26144638 8.01502501,10.2944187 5.13286466,10.2684396 C2.29806451,10.2643737 0,7.96977107 0,5.13421978 C0,2.29866849 2.29806178,0 5.13286466,0 C6.61462983,0 7.86027018,0.517827083 8.71178449,1.41709509 Z"/>
      </g>
    </g>
    <g fill="#000" transform="translate(65.512 27.927)">
      <g transform="translate(90.642 .727)">
        <path d="M0.726294553,5.11220622e-07 L8.96144251,0 C8.96144251,0 13.7021902,0.807670455 13.7021898,6.2588798 C13.7021894,11.7100892 8.96144251,12.5177596 8.96144251,12.5177596 L0.726294553,12.5177601 L0.726294553,5.11220622e-07 Z M2.32414257,3.02791458 L2.32414257,9.74545455 L7.91456335,9.74545455 C7.91456335,9.74545455 10.4586416,9.74545455 10.4586416,6.38668456 C10.4586416,3.02791458 7.91456335,3.02791458 7.91456335,3.02791458 L2.32414257,3.02791458 Z"/>
        <rect width="2.905" height="20.364"/>
      </g>
      <rect width="2.905" height="20.364" x="106.039" y=".727"/>
      <path d="M119.711938 19.6349285C118.91175 20.2960319 117.632449 20.9182401 115.61192 21.0446023 110.982999 21.3340912 110.980587 17.1044031 110.980587 16.8191761 110.980587 16.5339491 110.752272 13.0845881 114.434458 12.5362926 117.041808 12.1480455 118.867978 12.7949398 119.711938 13.20568L119.711938 12.6073606C119.504976 11.8149493 118.862721 10.3589489 116.937266 10.3589489 114.291978 10.3589489 113.707809 11.7910511 113.707809 11.7910511L111.287914 10.3589489C111.287914 10.3589489 112.642043 7.56363636 116.705192 7.56363636 121.757324 7.56363637 122.617418 11.0530007 122.617418 12.2282138 122.617418 12.2339342 122.617317 12.2396175 122.617116 12.2452642L122.617116 21.084375 119.711938 21.084375 119.711938 19.6349285zM119.504405 15.2731534C119.504405 15.2731534 113.90754 13.7625711 113.712986 16.9110085 113.518433 20.0594459 119.082388 18.5476563 119.579517 16.315767 119.579517 15.6060369 119.504405 15.2731534 119.504405 15.2731534zM128.068485 20.3183157L122.889038 8 125.794217 8 129.521075 16.8636127 133.218309 8.07045455 136.123487 8.07045455 128.263618 26.7636364 125.35844 26.7636364 128.068485 20.3183157zM84.1376429 12.7600954L74.9494408 16.5624944C74.9494408 16.5624944 75.5428488 18.6655954 78.3053477 18.6796912 80.4684873 18.6907288 81.689592 16.7597937 81.689592 16.7597937L84.0207622 18.3406575C84.0207622 18.3406575 82.1396357 21.3871101 78.2869858 21.3871101 73.5526103 21.3871101 71.467384 17.2417084 71.467384 14.5495479 71.467384 11.9557206 73.1225174 7.56363636 77.993195 7.56363636 82.8638725 7.56363636 84.1376429 12.7600954 84.1376429 12.7600954zM80.6417263 11.6829313C80.6417263 11.6829313 79.4857229 9.92173207 77.7128226 10.2465361 73.9625757 10.9335998 74.4345124 14.2198632 74.4345124 14.2198632L80.6417263 11.6829313z"/>
      <rect width="3.074" height="20.321" x="67.11" y=".727"/>
      <path d="M62.1911348 8.00527459L65.0322898 8.02985216 65.0322898 20.8516891C65.0322898 24.1276333 63.0845132 27.5857067 58.4989752 27.5857067 53.9134372 27.5857067 52.4324772 23.5173902 52.4324772 23.5173902L55.0418128 22.4185294C55.0418128 22.4185294 55.8376435 24.92583 58.6345709 24.9258266 61.8196589 24.9258228 62.1914879 22.0241954 62.1914879 21.0309599L62.1914879 19.6394936C62.1914879 19.6394936 61.0894192 21.3666744 58.3520797 21.3666781 55.3842451 21.3666823 51.8574311 18.8204855 51.8574311 14.479725 51.8574311 10.1389644 55.1783797 7.65609808 58.3864201 7.56578317 60.9560309 7.49344176 62.1911348 9.27341233 62.1911348 9.27341233L62.1911348 8.00527459zM58.594669 18.7611282C60.6665558 18.7611282 62.3461519 16.860666 62.3461519 14.5163272 62.3461519 12.1719884 60.6665558 10.2715263 58.594669 10.2715263 56.5227823 10.2715263 54.8431862 12.1719884 54.8431862 14.5163272 54.8431862 16.860666 56.5227823 18.7611282 58.594669 18.7611282zM43.6658883 21.3818182C39.8466272 21.3818182 36.7505044 18.2885128 36.7505044 14.4727273 36.7505044 10.6569417 39.8466272 7.56363636 43.6658883 7.56363636 47.4851494 7.56363636 50.5812723 10.6569417 50.5812723 14.4727273 50.5812723 18.2885128 47.4851494 21.3818182 43.6658883 21.3818182zM43.6206898 18.6723708C45.767464 18.6723708 47.5077683 16.7921263 47.5077683 14.4727273 47.5077683 12.1533282 45.767464 10.2730838 43.6206898 10.2730838 41.4739155 10.2730838 39.7336112 12.1533282 39.7336112 14.4727273 39.7336112 16.7921263 41.4739155 18.6723708 43.6206898 18.6723708zM28.7042206 21.3818182C24.8849594 21.3818182 21.7888366 18.2885128 21.7888366 14.4727273 21.7888366 10.6569417 24.8849594 7.56363636 28.7042206 7.56363636 32.5234817 7.56363636 35.6196045 10.6569417 35.6196045 14.4727273 35.6196045 18.2885128 32.5234817 21.3818182 28.7042206 21.3818182zM28.659022 18.6723708C30.8057962 18.6723708 32.5461005 16.7921263 32.5461005 14.4727273 32.5461005 12.1533282 30.8057962 10.2730838 28.659022 10.2730838 26.5122478 10.2730838 24.7719434 12.1533282 24.7719434 14.4727273 24.7719434 16.7921263 26.5122478 18.6723708 28.659022 18.6723708z"/>
      <polygon points="10.848 9.754 19.978 9.754 19.887 12.644 10.848 12.644"/>
      <path d="M18.1811155,2.95394469 L16.0918895,5.04126941 C14.7887766,3.71013401 12.9379676,2.98039216 10.8024625,2.98039216 C6.5338766,2.98039216 3.07350399,6.4376158 3.07350399,10.7023173 C3.07350399,14.9670188 6.5338766,18.4242424 10.8024625,18.4242424 C15.0710485,18.4242424 18.1016814,15.9587511 18.0953253,10.7023173 C18.1025448,10.3774731 18.0949733,10.0612654 18.0732592,9.7540107 L20.7402245,9.7540107 C20.7405271,9.78974662 20.7406786,9.82555522 20.7406786,9.86143605 C21.7438754,17.2210432 16.7270087,21.4587883 10.7120654,21.4046346 C4.79596073,21.3961594 0,16.6130439 0,10.7023173 C0,4.79159066 4.79595503,0 10.7120654,0 C13.8044449,0 16.4040421,1.0794142 18.1811155,2.95394469 Z"/>
    </g>
  </g>
</svg>
