<svg xmlns="http://www.w3.org/2000/svg" xmlns:xlink="http://www.w3.org/1999/xlink" width="60" height="60" viewBox="0 0 60 60"><defs><style>.a{fill:none;}.b{clip-path:url(#a);}.c{fill:#db4437;}.d{fill:url(#b);}.e,.s,.u{fill:#3e2723;}.e,.h{fill-opacity:0.15;}.f{fill:#0f9d58;}.g{fill:url(#e);}.h{fill:#263238;}.i{clip-path:url(#h);}.j{fill:#ffcd40;}.k{fill:url(#i);}.l{clip-path:url(#m);}.m{fill:url(#p);}.n{clip-path:url(#r);}.o{fill:url(#u);}.p{fill:url(#w);}.q{fill:#f1f1f1;}.r{fill:#4285f4;}.s,.v{fill-opacity:0.2;}.t,.v{fill:#fff;}.t{fill-opacity:0.1;}.u{opacity:0.1;isolation:isolate;}.w{fill:url(#aa);}</style><clipPath id="a"><circle class="a" cx="30" cy="30" r="26"/></clipPath><linearGradient id="b" x1="17.3" y1="164.67" x2="32.82" y2="173.73" gradientTransform="matrix(1, 0, 0, -1, -7, 188.48)" gradientUnits="userSpaceOnUse"><stop offset="0" stop-color="#a52714" stop-opacity="0.6"/><stop offset="0.66" stop-color="#a52714" stop-opacity="0"/></linearGradient><linearGradient id="e" x1="41.39" y1="138.24" x2="24.16" y2="148.33" gradientTransform="matrix(1, 0, 0, -1, -7, 188.48)" gradientUnits="userSpaceOnUse"><stop offset="0" stop-color="#055524" stop-opacity="0.4"/><stop offset="0.33" stop-color="#055524" stop-opacity="0"/></linearGradient><clipPath id="h"><polygon class="a" points="4 56 28.75 56 40.24 44.51 40.24 35.91 19.77 35.91 4 8.87 4 56"/></clipPath><linearGradient id="i" x1="44.64" y1="172.12" x2="48.98" y2="153.12" gradientTransform="matrix(1, 0, 0, -1, -7, 188.48)" gradientUnits="userSpaceOnUse"><stop offset="0" stop-color="#ea6100" stop-opacity="0.3"/><stop offset="0.66" stop-color="#ea6100" stop-opacity="0"/></linearGradient><clipPath id="m"><polygon class="a" points="30 18.18 40.24 35.91 28.75 56 56 56 56 18.18 30 18.18"/></clipPath><radialGradient id="p" cx="611.87" cy="170.31" r="24.84" gradientTransform="matrix(1, 0, 0, -1, -583, 188.48)" gradientUnits="userSpaceOnUse"><stop offset="0" stop-color="#3e2723" stop-opacity="0.2"/><stop offset="1" stop-color="#3e2723" stop-opacity="0"/></radialGradient><clipPath id="r"><polygon class="a" points="8.13 4 8.13 15.92 19.77 35.91 30 18.18 56 18.18 56 4 8.13 4"/></clipPath><radialGradient id="u" cx="591.1" cy="172.5" r="23.06" xlink:href="#p"/><radialGradient id="w" cx="612.95" cy="158.43" r="25.96" gradientTransform="matrix(1, 0, 0, -1, -583, 188.48)" gradientUnits="userSpaceOnUse"><stop offset="0" stop-color="#263238" stop-opacity="0.2"/><stop offset="1" stop-color="#263238" stop-opacity="0"/></radialGradient><radialGradient id="aa" cx="18.77" cy="177.38" r="52.22" gradientTransform="matrix(1, 0, 0, -1, -7, 188.48)" gradientUnits="userSpaceOnUse"><stop offset="0" stop-color="#fff" stop-opacity="0.1"/><stop offset="1" stop-color="#fff" stop-opacity="0"/></radialGradient></defs><title>icon-chrome-1</title><g class="b"><path class="c" d="M8.13,4V35.91H19.77L30,18.18H56V4Z"/><path class="d" d="M8.13,4V35.91H19.77L30,18.18H56V4Z"/></g><g class="b"><path class="e" d="M20,35.81,8.28,15.62l-.17.3L19.79,36Z"/></g><g class="b"><path class="f" d="M4,56H28.75L40.24,44.51v-8.6H19.77L4,8.87Z"/><path class="g" d="M4,56H28.75L40.24,44.51v-8.6H19.77L4,8.87Z"/></g><g class="b"><path class="h" d="M40,36.3l-.25-.14L28.41,56h.34L40,36.31Z"/></g><g class="b"><g class="i"><path class="j" d="M30,18.18,40.24,35.91,28.75,56H56V18.18Z"/><path class="k" d="M30,18.18,40.24,35.91,28.75,56H56V18.18Z"/></g><g class="b"><path class="j" d="M30,18.18,40.24,35.91,28.75,56H56V18.18Z"/><path class="k" d="M30,18.18,40.24,35.91,28.75,56H56V18.18Z"/></g><g class="b"><g class="l"><path class="c" d="M8.13,4V35.91H19.77L30,18.18H56V4Z"/><path class="d" d="M8.13,4V35.91H19.77L30,18.18H56V4Z"/></g><g class="b"><path class="m" d="M30,18.18v6.19l23.16-6.19Z"/></g><g class="b"><g class="n"><path class="f" d="M4,56H28.75L40.24,44.51v-8.6H19.77L4,8.87Z"/><path class="g" d="M4,56H28.75L40.24,44.51v-8.6H19.77L4,8.87Z"/></g><g class="b"><path class="o" d="M8.13,16,25,32.86l-5.28,3Z"/></g><g class="b"><path class="p" d="M28.77,56,35,32.86l5.28,3Z"/></g><g class="b"><circle class="q" cx="30" cy="30" r="11.82"/><circle class="r" cx="30" cy="30" r="9.45"/></g><g class="b"><path class="s" d="M30,17.89A11.82,11.82,0,0,0,18.18,29.7V30A11.82,11.82,0,0,1,30,18.18H56v-.3Z"/><path class="t" d="M40.22,35.91a11.8,11.8,0,0,1-20.45,0h0L4,8.87v.3l15.77,27h0a11.8,11.8,0,0,0,20.45,0h0v-.3h0Z"/><path class="u" d="M30.3,18.18h-.15a11.81,11.81,0,0,1,0,23.62h.15a11.82,11.82,0,0,0,0-23.64Z"/><path class="v" d="M40.34,36.3a11.78,11.78,0,0,0,1-9.47,11.69,11.69,0,0,1-1.14,9.07h0L28.75,56h.34L40.35,36.31Z"/></g><g class="b"><path class="v" d="M30,4.3A26,26,0,0,1,56,30.15c0-.05,0-.1,0-.15A26,26,0,1,0,4,30c0,.05,0,.1,0,.15A26,26,0,0,1,30,4.3Z"/><path class="e" d="M30,55.7A26,26,0,0,0,56,29.85c0,.05,0,.1,0,.15A26,26,0,1,1,4,30c0-.05,0-.1,0-.15A26,26,0,0,0,30,55.7Z"/></g><circle class="w" cx="30" cy="30" r="26"/></g></g></g></svg>