<svg xmlns="http://www.w3.org/2000/svg" width="216" height="64" viewBox="0 0 216 64">
  <g fill="none" fill-rule="evenodd">
    <rect width="215" height="63" x=".5" y=".5" fill="#FFF" stroke="#000" stroke-opacity=".1" rx="5.828"/>
    <path fill="#000" d="M80.9573018 48.1454545L84.5022434 48.1454545 76.7420982 26.6234375 73.1524725 26.6234375 65.3923273 48.1454545 68.8181111 48.1454545 70.7991079 42.4330966 78.9911998 42.4330966 80.9573018 48.1454545zM74.7759961 30.531108L75.0292062 30.531108 78.1422012 39.6291193 71.6481065 39.6291193 74.7759961 30.531108zM93.9017149 31.6348011C91.6972975 31.6348011 89.7907743 32.7384943 88.8077232 34.5879261L88.5694078 34.5879261 88.5694078 31.903267 85.4862024 31.903267 85.4862024 53.4103693 88.6885655 53.4103693 88.6885655 45.684517 88.9417757 45.684517C89.7907743 47.3997159 91.6228239 48.4139205 93.9315043 48.4139205 98.0275503 48.4139205 100.634125 45.1774148 100.634125 40.0169034 100.634125 34.856392 98.0275503 31.6348011 93.9017149 31.6348011L93.9017149 31.6348011zM92.9931375 45.5353693C90.3120892 45.5353693 88.6289867 43.4174716 88.6289867 40.0318182 88.6289867 36.63125 90.3120892 34.5133523 93.0080322 34.5133523 95.7188698 34.5133523 97.3423935 36.5865057 97.3423935 40.0169034 97.3423935 43.4622159 95.7188698 45.5353693 92.9931375 45.5353693L92.9931375 45.5353693zM110.510227 31.6348011C108.30581 31.6348011 106.399287 32.7384943 105.416236 34.5879261L105.17792 34.5879261 105.17792 31.903267 102.094715 31.903267 102.094715 53.4103693 105.297078 53.4103693 105.297078 45.684517 105.550288 45.684517C106.399287 47.3997159 108.231336 48.4139205 110.540017 48.4139205 114.636063 48.4139205 117.242637 45.1774148 117.242637 40.0169034 117.242637 34.856392 114.636063 31.6348011 110.510227 31.6348011L110.510227 31.6348011zM109.60165 45.5353693C106.920602 45.5353693 105.237499 43.4174716 105.237499 40.0318182 105.237499 36.63125 106.920602 34.5133523 109.616545 34.5133523 112.327382 34.5133523 113.950906 36.5865057 113.950906 40.0169034 113.950906 43.4622159 112.327382 45.5353693 109.60165 45.5353693L109.60165 45.5353693zM124.021547 42.3585227C124.259863 46.2065341 127.462226 48.6674716 132.228534 48.6674716 137.322526 48.6674716 140.509994 46.0872159 140.509994 41.9707386 140.509994 38.734233 138.692839 36.9444602 134.284004 35.9153409L131.915745 35.3336648C129.115539 34.6774148 127.983541 33.7974432 127.983541 32.2612216 127.983541 30.3223011 129.741117 29.0545455 132.377481 29.0545455 134.879793 29.0545455 136.607579 30.2924716 136.920368 32.2761364L140.167416 32.2761364C139.973784 28.6518466 136.786316 26.1014205 132.422165 26.1014205 127.730331 26.1014205 124.602441 28.6518466 124.602441 32.4849432 124.602441 35.646875 126.374912 37.5261364 130.262432 38.4359375L133.032848 39.1071023C135.877739 39.778267 137.128894 40.762642 137.128894 42.403267 137.128894 44.312358 135.162792 45.6994318 132.481744 45.6994318 129.607065 45.6994318 127.611173 44.4018466 127.328174 42.3585227L124.021547 42.3585227zM143.266424 27.965767L143.266424 31.9778409 140.60027 31.9778409 140.60027 34.6774148 143.266424 34.6774148 143.266424 43.85C143.266424 46.9821023 144.681422 48.2349432 148.241258 48.2349432 148.866836 48.2349432 149.44773 48.1603693 149.95415 48.0708807L149.95415 45.4011364C149.507308 45.4458807 149.254098 45.4757102 148.762573 45.4757102 147.168839 45.4757102 146.468787 44.7299716 146.468787 43.0296875L146.468787 34.6774148 150.103097 34.6774148 150.103097 31.9778409 146.468787 31.9778409 146.468787 27.965767 143.266424 27.965767zM158.042887 45.6099432C155.257575 45.6099432 153.693631 43.5666193 153.693631 40.0169034 153.693631 36.497017 155.257575 34.4387784 158.042887 34.4387784 160.813303 34.4387784 162.392143 36.497017 162.392143 40.0169034 162.392143 43.5517045 160.813303 45.6099432 158.042887 45.6099432L158.042887 45.6099432zM158.042887 48.4586648C162.779405 48.4586648 165.683874 45.2818182 165.683874 40.0169034 165.683874 34.7818182 162.76451 31.5900568 158.042887 31.5900568 153.306368 31.5900568 150.387004 34.7818182 150.387004 40.0169034 150.387004 45.2818182 153.291473 48.4586648 158.042887 48.4586648L158.042887 48.4586648zM167.144464 48.1454545L170.346827 48.1454545 170.346827 38.5552557C170.346827 36.2732955 172.059719 34.7370739 174.472662 34.7370739 175.008872 34.7370739 175.991923 34.8414773 176.245133 34.9309659L176.245133 31.7690341C175.902555 31.6795455 175.291872 31.6348011 174.830136 31.6348011 172.715086 31.6348011 170.927721 32.7981534 170.465985 34.3940341L170.227669 34.3940341 170.227669 31.903267 167.144464 31.903267 167.144464 48.1454545zM183.455082 34.3194602C185.823341 34.3194602 187.372391 35.975 187.446865 38.5254261L179.254773 38.5254261C179.43351 35.9899148 181.086823 34.3194602 183.455082 34.3194602L183.455082 34.3194602zM187.43197 43.7605114C186.836182 45.028267 185.510552 45.7292614 183.57424 45.7292614 181.012349 45.7292614 179.359036 43.9245739 179.254773 41.0758523L179.254773 40.896875 190.708807 40.896875 190.708807 39.778267C190.708807 34.6774148 187.983075 31.5900568 183.469977 31.5900568 178.8973 31.5900568 175.992831 34.8862216 175.992831 40.0765625 175.992831 45.2669034 178.837721 48.4586648 183.484871 48.4586648 187.193655 48.4586648 189.785335 46.668892 190.515176 43.7605114L187.43197 43.7605114zM68.393399 9.82414773L68.393399 20.0727273 72.0887063 20.0727273C75.138576 20.0727273 76.9046633 18.190625 76.9046633 14.9164773 76.9046633 11.6920455 75.1243906 9.82414773 72.0887063 9.82414773L68.393399 9.82414773zM69.9821684 11.2730114L71.9113883 11.2730114C74.0321116 11.2730114 75.2875231 12.6224432 75.2875231 14.9377841 75.2875231 17.2886364 74.0533898 18.6238636 71.9113883 18.6238636L69.9821684 18.6238636 69.9821684 11.2730114zM82.4951454 18.8653409C81.1688067 18.8653409 80.4240711 17.8923295 80.4240711 16.2019886 80.4240711 14.5258523 81.1688067 13.5457386 82.4951454 13.5457386 83.8143914 13.5457386 84.5662197 14.5258523 84.5662197 16.2019886 84.5662197 17.8852273 83.8143914 18.8653409 82.4951454 18.8653409L82.4951454 18.8653409zM82.4951454 20.221875C84.7506305 20.221875 86.1337109 18.7090909 86.1337109 16.2019886 86.1337109 13.7090909 84.7435377 12.1892045 82.4951454 12.1892045 80.2396604 12.1892045 78.8494872 13.7090909 78.8494872 16.2019886 78.8494872 18.7090909 80.2325677 20.221875 82.4951454 20.221875L82.4951454 20.221875zM98.0863631 12.3383523L96.5614282 12.3383523 95.1854405 18.2403409 95.0648642 18.2403409 93.4760949 12.3383523 92.0149945 12.3383523 90.4262252 18.2403409 90.3127417 18.2403409 88.9296612 12.3383523 87.3834482 12.3383523 89.5112643 20.0727273 91.0787555 20.0727273 92.6675248 14.3767045 92.788101 14.3767045 94.3839631 20.0727273 95.9656397 20.0727273 98.0863631 12.3383523zM100.024094 20.0727273L101.549029 20.0727273 101.549029 15.5485795C101.549029 14.3411932 102.300857 13.5883523 103.527898 13.5883523 104.662733 13.5883523 105.215965 14.20625 105.215965 15.4491477L105.215965 20.0727273 106.7409 20.0727273 106.7409 15.065625C106.7409 13.2261364 105.769198 12.1892045 104.045667 12.1892045 102.88246 12.1892045 101.981685 12.7076705 101.605771 13.5670455L101.492287 13.5670455 101.492287 12.3383523 100.024094 12.3383523 100.024094 20.0727273zM109.316976 20.0727273L110.841911 20.0727273 110.841911 9.31988636 109.316976 9.31988636 109.316976 20.0727273zM116.751566 18.8653409C115.425227 18.8653409 114.680491 17.8923295 114.680491 16.2019886 114.680491 14.5258523 115.425227 13.5457386 116.751566 13.5457386 118.070812 13.5457386 118.82264 14.5258523 118.82264 16.2019886 118.82264 17.8852273 118.070812 18.8653409 116.751566 18.8653409L116.751566 18.8653409zM116.751566 20.221875C119.007051 20.221875 120.390131 18.7090909 120.390131 16.2019886 120.390131 13.7090909 118.999958 12.1892045 116.751566 12.1892045 114.496081 12.1892045 113.105907 13.7090909 113.105907 16.2019886 113.105907 18.7090909 114.488988 20.221875 116.751566 20.221875L116.751566 20.221875zM125.108209 18.9150568C124.27836 18.9150568 123.675479 18.5102273 123.675479 17.8142045 123.675479 17.1323864 124.157784 16.7701705 125.221692 16.6991477L127.108356 16.5784091 127.108356 17.2247159C127.108356 18.1835227 126.257229 18.9150568 125.108209 18.9150568L125.108209 18.9150568zM124.718109 20.2005682C125.732368 20.2005682 126.576402 19.7602273 127.037429 18.9860795L127.158005 18.9860795 127.158005 20.0727273 128.626198 20.0727273 128.626198 14.7886364C128.626198 13.1551136 127.533919 12.1892045 125.597606 12.1892045 123.845704 12.1892045 122.597386 13.0414773 122.441346 14.3696023L123.916632 14.3696023C124.086857 13.8227273 124.675553 13.5102273 125.526679 13.5102273 126.569309 13.5102273 127.108356 13.971875 127.108356 14.7886364L127.108356 15.45625 125.016003 15.5769886C123.178989 15.690625 122.143452 16.4931818 122.143452 17.8852273 122.143452 19.2985795 123.228638 20.2005682 124.718109 20.2005682L124.718109 20.2005682zM133.98262 20.2005682C135.046528 20.2005682 135.947304 19.6963068 136.408331 18.8511364L136.528907 18.8511364 136.528907 20.0727273 137.990007 20.0727273 137.990007 9.31988636 136.465072 9.31988636 136.465072 13.5670455 136.351589 13.5670455C135.933118 12.7147727 135.039436 12.2105114 133.98262 12.2105114 132.032122 12.2105114 130.776711 13.7588068 130.776711 16.2019886 130.776711 18.6522727 132.017937 20.2005682 133.98262 20.2005682L133.98262 20.2005682zM134.415276 13.58125C135.691966 13.58125 136.493443 14.596875 136.493443 16.2090909 136.493443 17.8284091 135.699059 18.8298295 134.415276 18.8298295 133.124401 18.8298295 132.351295 17.8426136 132.351295 16.2019886 132.351295 14.5755682 133.131494 13.58125 134.415276 13.58125L134.415276 13.58125zM148.234732 18.8653409C146.908394 18.8653409 146.163658 17.8923295 146.163658 16.2019886 146.163658 14.5258523 146.908394 13.5457386 148.234732 13.5457386 149.553978 13.5457386 150.305807 14.5258523 150.305807 16.2019886 150.305807 17.8852273 149.553978 18.8653409 148.234732 18.8653409L148.234732 18.8653409zM148.234732 20.221875C150.490217 20.221875 151.873298 18.7090909 151.873298 16.2019886 151.873298 13.7090909 150.483125 12.1892045 148.234732 12.1892045 145.979247 12.1892045 144.589074 13.7090909 144.589074 16.2019886 144.589074 18.7090909 145.972155 20.221875 148.234732 20.221875L148.234732 20.221875zM154.066367 20.0727273L155.591302 20.0727273 155.591302 15.5485795C155.591302 14.3411932 156.34313 13.5883523 157.570171 13.5883523 158.705006 13.5883523 159.258238 14.20625 159.258238 15.4491477L159.258238 20.0727273 160.783173 20.0727273 160.783173 15.065625C160.783173 13.2261364 159.81147 12.1892045 158.087939 12.1892045 156.924733 12.1892045 156.023958 12.7076705 155.648043 13.5670455L155.53456 13.5670455 155.53456 12.3383523 154.066367 12.3383523 154.066367 20.0727273zM168.162439 10.4633523L168.162439 12.3738636 166.892842 12.3738636 166.892842 13.659375 168.162439 13.659375 168.162439 18.0272727C168.162439 19.51875 168.836247 20.1153409 170.531408 20.1153409 170.829302 20.1153409 171.105918 20.0798295 171.34707 20.0372159L171.34707 18.7659091C171.134289 18.7872159 171.013713 18.8014205 170.779653 18.8014205 170.020732 18.8014205 169.687374 18.4463068 169.687374 17.6366477L169.687374 13.659375 171.417998 13.659375 171.417998 12.3738636 169.687374 12.3738636 169.687374 10.4633523 168.162439 10.4633523zM173.589789 20.0727273L175.114723 20.0727273 175.114723 15.5556818C175.114723 14.3838068 175.88783 13.5954545 177.136149 13.5954545 178.285169 13.5954545 178.85968 14.2204545 178.85968 15.45625L178.85968 20.0727273 180.384615 20.0727273 180.384615 15.0798295C180.384615 13.2403409 179.391634 12.1963068 177.653917 12.1963068 176.490711 12.1963068 175.597028 12.7147727 175.221114 13.58125L175.100538 13.58125 175.100538 9.31988636 173.589789 9.31988636 173.589789 20.0727273zM186.067302 13.4889205C187.195045 13.4889205 187.932687 14.2772727 187.968151 15.4917614L184.067155 15.4917614C184.152268 14.284375 184.93956 13.4889205 186.067302 13.4889205L186.067302 13.4889205zM187.961058 17.9846591C187.67735 18.5883523 187.046097 18.9221591 186.124044 18.9221591 184.904096 18.9221591 184.116804 18.0627841 184.067155 16.70625L184.067155 16.6210227 189.521457 16.6210227 189.521457 16.0883523C189.521457 13.659375 188.223489 12.1892045 186.074395 12.1892045 183.89693 12.1892045 182.513849 13.7588068 182.513849 16.2303977 182.513849 18.7019886 183.868559 20.221875 186.081487 20.221875 187.847575 20.221875 189.081708 19.3696023 189.429251 17.9846591L187.961058 17.9846591z"/>
    <path fill="#000" d="M28.0844691 21.8987971C28.0377232 16.6965612 32.338343 14.1656564 32.534998 14.0478273 30.0993772 10.4919708 26.3242454 10.0061275 24.9976299 9.96738911 21.8269706 9.63327095 18.7514149 11.8671817 17.1362646 11.8671817 15.4888758 11.8671817 13.0016733 9.99967106 10.3210396 10.0545504 6.87151696 10.1078156 3.6444402 12.1076823 1.87454496 15.2132057-1.77808038 21.5453097.946075322 30.8505812 4.44556765 35.9688841 6.19611978 38.4771914 8.24165445 41.2744222 10.9190643 41.1759623 13.5384448 41.0694319 14.5168841 39.5037574 17.6778719 39.5037574 20.809845 39.5037574 21.7286431 41.1759623 24.4592465 41.1113984 27.2704462 41.0694319 29.0403415 38.5950206 30.7296404 36.0641158 32.7526081 33.1942507 33.565019 30.3615097 33.5972576 30.216241 33.5327805 30.1952577 28.1392746 28.1340553 28.0844691 21.8987971M22.9263044 6.60038194C24.3351282 4.83617349 25.2990602 2.43601066 25.0314804.000337681852 22.9923934.0907271361 20.4423258 1.4126729 18.9738608 3.13814302 17.6746481 4.65862277 16.514061 7.15078915 16.8138793 9.49445858 19.1044268 9.6655529 21.4562275 8.33715074 22.9263044 6.60038194" transform="translate(18.884 9.745)"/>
  </g>
</svg>
