<svg xmlns="http://www.w3.org/2000/svg" xmlns:xlink="http://www.w3.org/1999/xlink" width="60" height="60" viewBox="0 0 60 60"><defs><style>.a{fill:url(#a);}.b{fill:url(#b);}</style><linearGradient id="a" x1="-923.84" y1="580.27" x2="-923.32" y2="580.27" gradientTransform="matrix(0, 97.4, 97.4, 0, -56490.83, 89983.82)" gradientUnits="userSpaceOnUse"><stop offset="0" stop-color="#ff1b2d"/><stop offset="0.3" stop-color="#ff1b2d"/><stop offset="0.61" stop-color="#ff1b2d"/><stop offset="1" stop-color="#a70014"/></linearGradient><linearGradient id="b" x1="-923.2" y1="581.34" x2="-922.68" y2="581.34" gradientTransform="matrix(0, 86.14, 86.14, 0, -50039.52, 79534.52)" gradientUnits="userSpaceOnUse"><stop offset="0" stop-color="#9c0000"/><stop offset="0.7" stop-color="#ff4b4b"/><stop offset="1" stop-color="#ff4b4b"/></linearGradient></defs><title>icon-opera-1</title><path class="a" d="M30,4A26,26,0,0,0,4,30H4A26,26,0,0,0,28.76,56h0c.41,0,.82,0,1.24,0h0a25.91,25.91,0,0,0,17.33-6.62h0a18.75,18.75,0,0,1-10.42,3.18h0a19.54,19.54,0,0,1-15.47-7.92h0a22.65,22.65,0,0,1-4.86-14h0V29.38h0a22.64,22.64,0,0,1,4.86-14h0A19.55,19.55,0,0,1,36.91,7.43h0a18.75,18.75,0,0,1,10.42,3.19h0A25.91,25.91,0,0,0,30.1,4H30Z"/><path class="b" d="M21.44,15.35a11.66,11.66,0,0,1,8.83-4.52h0C37.84,10.83,44,19.41,44,30h0c0,10.59-6.14,19.16-13.71,19.16h0a11.64,11.64,0,0,1-8.83-4.51h0a19.54,19.54,0,0,0,15.47,7.92h0a18.79,18.79,0,0,0,10.42-3.18h0A25.92,25.92,0,0,0,56,30h0a25.93,25.93,0,0,0-8.67-19.38h0A18.75,18.75,0,0,0,36.91,7.44h0a19.54,19.54,0,0,0-15.47,7.92"/></svg>