<svg xmlns="http://www.w3.org/2000/svg" xmlns:xlink="http://www.w3.org/1999/xlink" width="60" height="60" viewBox="0 0 60 60"><defs><style>.a{fill:url(#a);}.b{fill:url(#b);}.c{fill:url(#c);}.d{fill:url(#d);}.e{fill:url(#e);}.f{fill:url(#f);}.g{fill:url(#g);}.h{fill:url(#h);}.i{fill:url(#i);}.j{fill:url(#j);}.k{fill:url(#k);}.l{fill:url(#l);}.m{fill:url(#m);}.n{fill:url(#n);}</style><radialGradient id="a" cx="2.13" cy="60.41" r="1.83" gradientTransform="matrix(9.93, 0.44, 0.44, -9.93, 4.36, 615.99)" gradientUnits="userSpaceOnUse"><stop offset="0.04" stop-color="#ffea00"/><stop offset="0.12" stop-color="#ffde00"/><stop offset="0.25" stop-color="#ffbf00"/><stop offset="0.43" stop-color="#ff8e00"/><stop offset="0.77" stop-color="#ff272d"/><stop offset="0.87" stop-color="#e0255a"/><stop offset="0.95" stop-color="#cc2477"/><stop offset="1" stop-color="#c42482"/></radialGradient><radialGradient id="b" cx="1.77" cy="60.82" r="1.11" gradientTransform="matrix(47, 0, 0, -47, -43.4, 2872.41)" gradientUnits="userSpaceOnUse"><stop offset="0" stop-color="#00ccda"/><stop offset="0.22" stop-color="#0083ff"/><stop offset="0.26" stop-color="#007af9"/><stop offset="0.33" stop-color="#0060e8"/><stop offset="0.33" stop-color="#005fe7"/><stop offset="0.44" stop-color="#2639ad"/><stop offset="0.52" stop-color="#401e84"/><stop offset="1" stop-color="#4a1475"/></radialGradient><linearGradient id="c" x1="1.64" y1="60.18" x2="1.41" y2="60.87" gradientTransform="matrix(45.3, 0, 0, -48.1, -40.9, 2937.54)" gradientUnits="userSpaceOnUse"><stop offset="0" stop-color="#000f43" stop-opacity="0.4"/><stop offset="0.48" stop-color="#001962" stop-opacity="0.17"/><stop offset="1" stop-color="#002079" stop-opacity="0"/></linearGradient><radialGradient id="d" cx="2.82" cy="60.88" r="1.72" gradientTransform="matrix(9.97, 1.01, 1.01, -9.97, -31.91, 642.41)" gradientUnits="userSpaceOnUse"><stop offset="0" stop-color="#ffea00"/><stop offset="0.5" stop-color="#ff272d"/><stop offset="1" stop-color="#c42482"/></radialGradient><radialGradient id="e" cx="2.9" cy="61.03" r="4.55" gradientTransform="matrix(6.31, 0.64, 0.64, -6.31, 0.36, 404.85)" gradientUnits="userSpaceOnUse"><stop offset="0" stop-color="#ffe900"/><stop offset="0.16" stop-color="#ffaf0e"/><stop offset="0.32" stop-color="#ff7a1b"/><stop offset="0.47" stop-color="#ff4e26"/><stop offset="0.62" stop-color="#ff2c2e"/><stop offset="0.76" stop-color="#ff1434"/><stop offset="0.89" stop-color="#ff0538"/><stop offset="1" stop-color="#ff0039"/></radialGradient><radialGradient id="f" cx="3.6" cy="60.49" r="3.8" gradientTransform="matrix(6.93, 0.7, 0.7, -6.94, -8.39, 465.69)" gradientUnits="userSpaceOnUse"><stop offset="0" stop-color="#ff272d"/><stop offset="0.5" stop-color="#c42482"/><stop offset="0.99" stop-color="#620700"/></radialGradient><radialGradient id="g" cx="1.96" cy="60.55" r="0.93" gradientTransform="matrix(49.18, 0, 0, -49.18, -47.38, 3002.36)" gradientUnits="userSpaceOnUse"><stop offset="0" stop-color="#ffea00"/><stop offset="0.23" stop-color="#ffde00"/><stop offset="0.36" stop-color="#ffbf00"/><stop offset="0.54" stop-color="#ff8e00"/><stop offset="0.76" stop-color="#ff272d"/><stop offset="0.8" stop-color="#f92433"/><stop offset="0.84" stop-color="#e91c45"/><stop offset="0.89" stop-color="#cf0e62"/><stop offset="1" stop-color="#b5007f"/></radialGradient><radialGradient id="h" cx="1.4" cy="60.85" r="2.5" gradientTransform="matrix(19.53, 0, 0, -19.53, 12.12, 1192.61)" gradientUnits="userSpaceOnUse"><stop offset="0.28" stop-color="#ffea00"/><stop offset="0.4" stop-color="#fd0"/><stop offset="0.63" stop-color="#ffba00"/><stop offset="0.86" stop-color="#ff9100"/><stop offset="0.93" stop-color="#ff6711"/><stop offset="0.99" stop-color="#ff4a1d"/></radialGradient><linearGradient id="i" x1="0.24" y1="59.95" x2="2.85" y2="60.3" gradientTransform="matrix(7.22, 0, 0, -8.1, 12.55, 508.7)" gradientUnits="userSpaceOnUse"><stop offset="0" stop-color="#c42482" stop-opacity="0.5"/><stop offset="0.47" stop-color="#ff272d" stop-opacity="0.5"/><stop offset="0.49" stop-color="#ff2c2c" stop-opacity="0.51"/><stop offset="0.68" stop-color="#ff7a1a" stop-opacity="0.72"/><stop offset="0.83" stop-color="#ffb20d" stop-opacity="0.87"/><stop offset="0.94" stop-color="#ffd605" stop-opacity="0.96"/><stop offset="1" stop-color="#ffe302"/></linearGradient><linearGradient id="j" x1="2.09" y1="59.71" x2="1.71" y2="60.61" gradientTransform="matrix(5.72, 0, 0, -8.51, 0.56, 525.67)" gradientUnits="userSpaceOnUse"><stop offset="0" stop-color="#891551" stop-opacity="0.6"/><stop offset="1" stop-color="#c42482" stop-opacity="0"/></linearGradient><linearGradient id="k" x1="1.35" y1="60.73" x2="1.75" y2="60.32" gradientTransform="matrix(11.02, 0, 0, -14.73, 1.57, 923.38)" gradientUnits="userSpaceOnUse"><stop offset="0.01" stop-color="#891551" stop-opacity="0.5"/><stop offset="0.48" stop-color="#ff272d" stop-opacity="0.5"/><stop offset="1" stop-color="#ff272d" stop-opacity="0"/></linearGradient><linearGradient id="l" x1="1.66" y1="59.41" x2="1.69" y2="60.13" gradientTransform="matrix(15.87, 0, 0, -5.47, -1.54, 364.76)" gradientUnits="userSpaceOnUse"><stop offset="0" stop-color="#c42482"/><stop offset="0.08" stop-color="#c42482" stop-opacity="0.81"/><stop offset="0.21" stop-color="#c42482" stop-opacity="0.56"/><stop offset="0.33" stop-color="#c42482" stop-opacity="0.36"/><stop offset="0.45" stop-color="#c42482" stop-opacity="0.2"/><stop offset="0.56" stop-color="#c42482" stop-opacity="0.09"/><stop offset="0.67" stop-color="#c42482" stop-opacity="0.02"/><stop offset="0.77" stop-color="#c42482" stop-opacity="0"/></linearGradient><linearGradient id="m" x1="1.22" y1="60.91" x2="2.08" y2="60.03" gradientTransform="matrix(18.73, 0, 0, -41.1, 14.72, 2509.4)" gradientUnits="userSpaceOnUse"><stop offset="0" stop-color="#fff14f"/><stop offset="0.27" stop-color="#ffee4c"/><stop offset="0.45" stop-color="#ffe643"/><stop offset="0.61" stop-color="#ffd834"/><stop offset="0.76" stop-color="#ffc41e"/><stop offset="0.89" stop-color="#ffab02"/><stop offset="0.9" stop-color="#ffa900"/><stop offset="0.95" stop-color="#ffa000"/><stop offset="1" stop-color="#ff9100"/></linearGradient><linearGradient id="n" x1="1.83" y1="60.82" x2="1.54" y2="60.07" gradientTransform="matrix(26.32, 0, 0, -27.5, -7.42, 1699.2)" gradientUnits="userSpaceOnUse"><stop offset="0" stop-color="#ff8e00"/><stop offset="0.04" stop-color="#ff8e00" stop-opacity="0.86"/><stop offset="0.08" stop-color="#ff8e00" stop-opacity="0.73"/><stop offset="0.13" stop-color="#ff8e00" stop-opacity="0.63"/><stop offset="0.18" stop-color="#ff8e00" stop-opacity="0.56"/><stop offset="0.23" stop-color="#ff8e00" stop-opacity="0.51"/><stop offset="0.28" stop-color="#ff8e00" stop-opacity="0.5"/><stop offset="0.39" stop-color="#ff8e00" stop-opacity="0.48"/><stop offset="0.52" stop-color="#ff8e00" stop-opacity="0.42"/><stop offset="0.68" stop-color="#ff8e00" stop-opacity="0.31"/><stop offset="0.84" stop-color="#ff8e00" stop-opacity="0.17"/><stop offset="1" stop-color="#ff8e00" stop-opacity="0"/></linearGradient></defs><title>icon-firefox-1</title><path class="a" d="M45.5,8.8c-1.3,1.5-1.9,4.8-.6,8.2s3.2,2.6,4.5,6.1c1.6,4.5.9,10.6.9,10.6s1.9,5.6,3.3-.4C56.6,22.1,45.5,11.6,45.5,8.8Z"/><path class="b" d="M30.1,55.5A23.55,23.55,0,1,0,6.6,31.9,23.56,23.56,0,0,0,30.1,55.5Z"/><path class="c" d="M47.6,46.5a8.64,8.64,0,0,1-1.6,1c.7-1.1,1.4-2.2,2-3.3a9.62,9.62,0,0,0,1.3-1.7,8.79,8.79,0,0,0,.6-1,22.39,22.39,0,0,0,2.8-10.2V31a13.58,13.58,0,0,0-.3-2.9v0a.37.37,0,0,0,.1.3,9.77,9.77,0,0,1-.9,6.2v.1a19.56,19.56,0,0,0,.1-8,29.91,29.91,0,0,0-1.9-5.4,16.39,16.39,0,0,0-4.1-5.7c-1.3-1.6-2.5-2.7-3.1-3.4A9.44,9.44,0,0,1,40.4,9c-.2-.1-2.8-2.6-3-2.7-1.1,1.8-4.7,7.3-3,12.4a12.55,12.55,0,0,0,4.8,6.1,8.09,8.09,0,0,1,1.7,4.1,13.6,13.6,0,0,1-.9,8.3c-1.3,2.9-4.8,5.7-8,6-6.9.6-9.4-3.4-9.4-3.4a8,8,0,0,0,6.8-.2c1.7-1,2.7-1.8,3.5-1.5s1.4-.6.9-1.5a4.13,4.13,0,0,0-4.2-1.8c-1.7.3-3.2,1.6-5.4.3-.1-.1-.3-.2-.4-.3s.5.1.3,0a8.51,8.51,0,0,1-1.4-.9l.3.1c-2-1.7-1.8-2.8-1.7-3.5a2.14,2.14,0,0,1,1-1.6,5.2,5.2,0,0,0,.5.3,1.42,1.42,0,0,0-.2-.4h.1c.2.1.8.4,1.1.6a1.73,1.73,0,0,1,.5.5s.1-.1,0-.3a1.09,1.09,0,0,0-.5-.7c.2.1.4.3.6.4a4.91,4.91,0,0,0,.3-1.5c0-.5,0-.6-.1-.8s0-.2.2-.1c0-.1-.1-.3-.1-.4.2-.6,3.6-2.1,3.9-2.3a3.46,3.46,0,0,0,1-1.1,3.36,3.36,0,0,0,.4-1.4c0-.5-.2-.8-3.7-1.1a2.25,2.25,0,0,1-1.8-1.4c-.1-.1-.1-.3-.2-.4a.6.6,0,0,1-.1-.4,9.1,9.1,0,0,1,2.9-4.1c.1-.1-.3,0-.2-.1s.7-.3.8-.4-.6-.4-1.2-.3a2.43,2.43,0,0,0-1.1.3c.1-.1.6-.3.5-.3a6.44,6.44,0,0,0-2.3,1v-.2a3.13,3.13,0,0,0-1.4,1.2v-.3a4.62,4.62,0,0,0-.7.7,8.82,8.82,0,0,0-5.2-.5c-.3-.3-.5-.1-1.2-1.7h0c-.1-.3.1.4,0,0-1.2,1-2.8,2.1-3.6,2.8h0c-.3.1-.3.3-.3,2v.4c-.6.8-1,1.5-1.2,1.8a25.18,25.18,0,0,0-2.5,7A17.39,17.39,0,0,1,8.9,25a26.83,26.83,0,0,0-1.5,9,26.81,26.81,0,0,1,.7-2.7A22.74,22.74,0,0,0,9.7,42a25.64,25.64,0,0,0,2.7,5,23.78,23.78,0,0,0,17.3,7.4A23.28,23.28,0,0,0,47.6,46.5Z"/><path class="d" d="M42.4,49.8c8.6-1,12.4-9.9,7.5-10C45.5,39.6,38.3,50.3,42.4,49.8Z"/><path class="e" d="M50.5,37.9C56.4,34.5,54.9,27,54.9,27a24.13,24.13,0,0,0-3.8,6.9C49.5,38.1,47,40,50.5,37.9Z"/><path class="f" d="M31.7,54.2c8.3,2.6,15.4-3.9,11-6C38.7,46.2,27.8,53,31.7,54.2Z"/><path class="g" d="M51.1,41.1c.2-.3.5-1.2.7-1.6a8.65,8.65,0,0,0,1.5-4.3,22.15,22.15,0,0,0,.3-9.5,18.4,18.4,0,0,0-4-8.3c-1.7-1.9-.5-1.3-2.2-2.7a35.3,35.3,0,0,0-3.6-3.8c-5.5-4.6-5.4-5.6-5.3-5.8l-.1.1a1.75,1.75,0,0,1-.1-.5,14.57,14.57,0,0,0-3.6,8,12.28,12.28,0,0,0,2.6,8.9,22.7,22.7,0,0,0,3.1,3.1,12.24,12.24,0,0,1,2.1,6.9A11.58,11.58,0,0,1,28.3,42.9a9.54,9.54,0,0,1-5.6-3.1,5.86,5.86,0,0,1-.7-1,9.59,9.59,0,0,0,7.5-.2c1.8-1,2.9-1.8,3.8-1.5s1.6-.6,1-1.5a4.58,4.58,0,0,0-4.6-1.8c-1.8.3-3.5,1.6-5.9.3-.2-.1-.3-.2-.5-.3s.5.1.4,0a6.56,6.56,0,0,1-1.5-.9s.4.1.3.1c-2.3-1.7-2-2.8-1.9-3.5a2.14,2.14,0,0,1,1.2-1.6,5.2,5.2,0,0,0,.5.3,1.87,1.87,0,0,1-.3-.4h.1a6.72,6.72,0,0,1,1.2.6,1.73,1.73,0,0,1,.5.5s.1-.1,0-.3a1.49,1.49,0,0,0-.6-.7c.2.1.5.3.7.4a4.91,4.91,0,0,0,.3-1.5c0-.5,0-.6-.1-.8s0-.2.2-.1c0-.1-.1-.3-.1-.4.2-.6,4-2.1,4.3-2.3a5.73,5.73,0,0,0,1.1-1.1,2.33,2.33,0,0,0,.4-1.4c0-.3-.1-.5-1.1-.7a24.44,24.44,0,0,0-3-.4,2.43,2.43,0,0,1-2-1.4c-.1-.1-.1-.3-.2-.4a.6.6,0,0,1-.1-.4,8.43,8.43,0,0,1,3.2-4c.1-.1-.3,0-.3-.1a7.93,7.93,0,0,1,.9-.4c.1-.1-.6-.4-1.3-.3s-.9.1-1.2.3c.2-.1.7-.3.5-.3a8.38,8.38,0,0,0-2.5.9v-.2a3.57,3.57,0,0,0-1.6,1.2v-.3c-.3.2-.5.5-.8.7a10.57,10.57,0,0,0-5.7-.5A6.15,6.15,0,0,1,13.1,12c-.1-.1-.1.2-.1.1a8.21,8.21,0,0,1-.5-2.8,2.72,2.72,0,0,0-1.2,1.5c-.1.2-.2.3-.2.5l.1-.4a4.35,4.35,0,0,0-.4.7,1.07,1.07,0,0,0-.2.6v-.3a7.74,7.74,0,0,0-.7,1.6,17.15,17.15,0,0,0-.7,3.9v.4a6.23,6.23,0,0,0-1.3,1.8A33,33,0,0,0,5,26.8a13.5,13.5,0,0,1,1.5-2.6,23.19,23.19,0,0,0-1.7,9,26.81,26.81,0,0,1,.7-2.7A22,22,0,0,0,7.6,41a24.71,24.71,0,0,0,9.7,11A23.34,23.34,0,0,0,23,54.7c.3.1.5.2.8.3a.35.35,0,0,1-.2-.1A26.37,26.37,0,0,0,30.9,56c9.3,0,12-3.7,12-3.7h0l.4-.4c-1.5,1.4-4.8,1.5-6,1.4,2.1-.6,3.5-1.2,6.2-2.2a10.37,10.37,0,0,1,1-.4h.1c.1,0,.1-.1.2-.1a17.62,17.62,0,0,0,3.7-2.3,9.34,9.34,0,0,0,3.6-5.7c0,.1-.2.4-.3.7-.7,1.5-2.3,2.4-4,3.2A31.53,31.53,0,0,0,50,43.2,14.3,14.3,0,0,0,51.1,41.1Z"/><path class="h" d="M47.8,46.3a18.39,18.39,0,0,0,2.9-4.2c2-4.1,5-10.9,2.6-18a26.32,26.32,0,0,0-7.7-11.7C40.3,7.5,38.8,5.3,38.8,4c0,0-6.1,6.8-3.5,14S43.4,24.9,47,32.3c4.2,8.8-3.4,18.3-9.8,21,.4-.1,14.1-3.2,14.8-11C52,42.4,51.7,44.6,47.8,46.3Z"/><path class="i" d="M30,20.9c0-.5-.2-.8-4.1-1.1a2.88,2.88,0,0,1-2.4-2.2,10.79,10.79,0,0,0-.7,4.8,9.9,9.9,0,0,0,1.3,3.3.35.35,0,0,0,.1-.2c.7-.8,3.8-1.9,4.1-2.1A2.93,2.93,0,0,0,30,20.9Z"/><path class="j" d="M13.2,12.3c-.1-.1-.1.2-.1.1a8.08,8.08,0,0,1-.5-2.7,2.72,2.72,0,0,0-1.2,1.5c-.1.2-.2.3-.2.5l.1-.4a4.35,4.35,0,0,0-.4.7,1.07,1.07,0,0,0-.2.6v-.3a14.27,14.27,0,0,0-1.4,5.9A12.85,12.85,0,0,1,15,14.7,6.73,6.73,0,0,1,13.2,12.3Z"/><path class="k" d="M23.3,42.1c-3.7-1.6-7.9-3.8-7.7-8.8.2-6.6,6.2-5.3,6.2-5.3a2.71,2.71,0,0,0-1,.9,3,3,0,0,0,.6,3.2c2,2.1-4,5,5.2,10.5A11.3,11.3,0,0,1,23.3,42.1Z"/><path class="l" d="M22,38.7a10,10,0,0,0,7.5-.3c1.2-.7,2.8-1.8,3.7-1.5a6.31,6.31,0,0,0-2.2-.5H29.8c-.5,0-1,.3-1.5.3,0,0,.5-.2.4-.2a2.2,2.2,0,0,1-.8.1.9.9,0,0,0-.5.1c-5.4.5-10-2.9-10-2.9C16.9,35.1,19.1,37.7,22,38.7Z"/><path class="m" d="M47.8,46.4c5.5-5.4,8.3-12,7.1-19.3a15.06,15.06,0,0,1-1.3,7.6,19.76,19.76,0,0,0-1.3-13.3,28.68,28.68,0,0,0-9.9-11.3c-2.9-2.2-4.1-4.4-4.1-4.8-.9,1.7-3.5,7.8-.3,13,3,4.9,7.7,6.3,11,10.8C55,37.4,47.8,46.4,47.8,46.4Z"/><path class="n" d="M47,32.3c-1.9-4-4.3-5.7-6.6-7.6a6.82,6.82,0,0,0,.5.7,14.14,14.14,0,0,1,2.8,13.9c-4,12.3-20.1,6.5-21.8,4.9.7,7.1,12.6,10.5,20.3,5.9C46.6,45.9,50.2,38.8,47,32.3Z"/></svg>