<?xml version="1.0" encoding="UTF-8"?>
<svg width="614px" height="412px" viewBox="0 0 614 412" version="1.1" xmlns="http://www.w3.org/2000/svg" xmlns:xlink="http://www.w3.org/1999/xlink">
    <!-- Generator: Sketch 51.2 (57519) - http://www.bohemiancoding.com/sketch -->
    <title>Group 36</title>
    <desc>Created with Sketch.</desc>
    <defs>
        <rect id="path-1" x="0.191483199" y="5.33756652" width="468.408212" height="281.229354" rx="7.38367394"></rect>
        <rect id="path-2" x="0" y="0" width="468.815723" height="281.229354" rx="7.38367394"></rect>
        <linearGradient x1="23.1622869%" y1="0%" x2="50%" y2="50%" id="linearGradient-4">
            <stop stop-color="#000000" offset="0%"></stop>
            <stop stop-color="#000000" offset="100%"></stop>
        </linearGradient>
    </defs>
    <g id="Visual-Design---Final-pages" stroke="none" stroke-width="1" fill="none" fill-rule="evenodd">
        <g id="Home-Page-v2" transform="translate(-755.000000, -1020.000000)">
            <g id="Group-36" transform="translate(755.000000, 1026.000000)">
                <g id="Group-22" transform="translate(231.000000, 357.000000)">
                    <g id="Group-59" opacity="0.900000036" fill-rule="nonzero">
                        <ellipse id="Oval-9" fill="#E4E4E4" cx="53" cy="30" rx="53" ry="16"></ellipse>
                        <ellipse id="Oval-9-Copy" fill="#1579B0" cx="53" cy="27" rx="30" ry="9"></ellipse>
                        <rect id="Rectangle-27" fill="#1579B0" x="23" y="9" width="60" height="19"></rect>
                        <ellipse id="Oval-9" fill="#00B5FF" cx="53" cy="9" rx="30" ry="9"></ellipse>
                    </g>
                    <path d="M29.2415672,11 C26.8966094,11 26.3344896,9.68232044 27.8255855,8.01657459 C29.3166814,6.35082873 31.8989089,5 33.8669189,5 C34.8280401,5 35.3168786,5.2320442 35.6131202,5.58839779 C35.6967835,5.6878453 35.707925,5.87016575 35.5599323,6.09392265 C35.3297215,6.44198895 34.8159459,6.71546961 34.4047219,6.71546961 C34.1991099,6.71546961 34.1086197,6.64917127 34.0421878,6.59116022 C33.8148192,6.32596685 33.4910391,6.17679558 32.9635416,6.17679558 C31.8318198,6.17679558 30.3381871,6.98895028 29.5074818,7.98342541 C28.6629314,8.99447514 28.8791919,9.82320442 30.1927074,9.82320442 C30.904195,9.82320442 31.4941661,9.65745856 32.1771011,9.36740331 C32.3643427,9.28453039 32.5764761,9.22651934 32.769512,9.22651934 C33.1877566,9.22651934 33.3667498,9.49171271 33.1535831,9.81491713 C33.0224037,10.0138122 32.7856495,10.1712707 32.5640445,10.2707182 C31.5482763,10.7265193 30.5164957,11 29.2415672,11 Z M33.6323905,10.3121547 L36.5577213,5.6878453 C36.78315,5.33149171 37.2732444,5.04972376 37.667641,5.04972376 C38.0620376,5.04972376 38.2117658,5.33149171 38.0067313,5.6878453 L37.0244732,7.39502762 L39.8768525,7.39502762 L40.6789317,5.6878453 C40.8463559,5.33149171 41.2905864,5.04972376 41.684983,5.04972376 C42.0793796,5.04972376 42.2749717,5.33149171 42.1279417,5.6878453 L40.2199707,10.3121547 C40.0729406,10.6685083 39.5702807,10.9502762 39.0815938,10.9502762 C38.5929069,10.9502762 38.3388853,10.6685083 38.5063096,10.3121547 L39.3239631,8.5718232 L36.3473826,8.5718232 L35.3460515,10.3121547 C35.1410171,10.6685083 34.5924932,10.9502762 34.1038063,10.9502762 C33.6151194,10.9502762 33.4069617,10.6685083 33.6323905,10.3121547 Z M40.8436006,10.3535912 C40.8792649,10.2624309 40.9592306,10.1712707 41.0499666,10.0801105 L45.1012084,5.51381215 C45.3516703,5.19889503 45.6909709,5.00828729 46.0755488,5.00828729 L46.1579583,5.00828729 C46.5425361,5.00828729 46.7726975,5.19889503 46.8579708,5.51381215 L48.5139771,10.0801105 C48.5568954,10.1712707 48.579042,10.2541436 48.5679627,10.3370166 C48.5225374,10.6767956 48.1223016,10.9502762 47.6563443,10.9502762 C47.2472111,10.9502762 47.006324,10.7762431 46.8980632,10.5110497 L46.5591838,9.59944751 L43.2134387,9.59944751 L42.3585989,10.5524862 C42.1274304,10.801105 41.7807366,10.9502762 41.4170626,10.9502762 C40.9624702,10.9502762 40.7139119,10.6850829 40.8436006,10.3535912 Z M44.1696856,8.47237569 L46.1958138,8.47237569 L45.6862591,6.55801105 L44.1696856,8.47237569 Z M49.2213273,10.320442 L49.7380935,5.70441989 C49.7779875,5.3480663 50.1215894,5.06629834 50.5162509,5.06629834 L50.6631016,5.06629834 C51.0026941,5.06629834 51.1963403,5.21546961 51.379582,5.43922652 L54.3493539,8.67127072 L54.1617327,5.67955801 C54.1399042,5.33149171 54.4340819,5.04972376 54.8193065,5.04972376 C55.2045311,5.04972376 55.5499665,5.33149171 55.5914563,5.67955801 L56.1416897,10.2955801 C56.1841673,10.6519337 55.8315601,10.9337017 55.3431381,10.9337017 L55.2863448,10.9337017 C54.8660747,10.9337017 54.6062194,10.7845304 54.3556508,10.5607735 L51.0855667,7.21270718 L50.9132012,10.320442 C50.8938963,10.6685083 50.4918648,10.9502762 50.0145428,10.9502762 C49.5372207,10.9502762 49.1823611,10.6685083 49.2213273,10.320442 Z M61.2627631,11 C58.7812058,11 56.8874661,9.7320442 56.6354861,8.01657459 C56.3908099,6.35082873 57.6111887,5 59.5517382,5 C60.5220129,5 61.232111,5.19889503 61.9491203,5.56353591 C62.1239929,5.65469613 62.3505651,5.82872928 62.4460308,6.07734807 C62.5796828,6.42541436 62.3550863,6.70718232 61.9439916,6.70718232 C61.7286563,6.70718232 61.5689268,6.64088398 61.4391031,6.57458564 C60.9498572,6.32596685 60.4701359,6.17679558 59.837139,6.17679558 C58.7629623,6.17679558 58.0789762,6.99723757 58.2828397,7.98342541 C58.5055476,9.06077348 59.6303694,9.83977901 60.9884325,9.83977901 C61.6017514,9.83977901 62.1116624,9.72375691 62.4583604,9.49171271 L62.1770987,8.66298343 L61.08356,8.66298343 C60.6945126,8.66298343 60.3127755,8.42265193 60.2281944,8.1160221 C60.1436133,7.80939227 60.3781895,7.56077348 60.7520814,7.56077348 L62.5305939,7.56077348 C62.9651168,7.56077348 63.4199242,7.84254144 63.5605989,8.19889503 L64.1167544,9.60773481 C64.263972,9.98066298 64.1766895,10.2375691 63.8343056,10.4198895 C63.300284,10.7099448 62.4580086,11 61.2627631,11 Z M66.470888,10.9005525 C65.9829957,10.9005525 65.4770364,10.6187845 65.3250389,10.2624309 L63.3950252,5.73756906 C63.2430278,5.38121547 63.4353205,5.09944751 63.8305117,5.09944751 L67.3964227,5.09944751 C67.7456614,5.09944751 68.1911288,5.35635359 68.3879468,5.67127072 C68.5847649,5.98618785 68.4421625,6.23480663 68.0768905,6.23480663 L65.0778151,6.23480663 L65.6466712,7.41160221 L68.3299541,7.41160221 C68.7118446,7.41160221 69.1796526,7.66850829 69.3712042,7.98342541 C69.5627559,8.29834254 69.3893588,8.54696133 68.9914351,8.54696133 L66.1954971,8.54696133 L66.7843834,9.76519337 L70.2474195,9.76519337 C70.6625469,9.76519337 71.1622429,10.0220994 71.3596461,10.3370166 C71.5570493,10.6519337 71.3611576,10.9005525 70.9299969,10.9005525 L66.470888,10.9005525 Z M72.0738723,10.2624309 L69.1223133,5.73756906 C68.8898646,5.38121547 69.0185446,5.09944751 69.4137358,5.09944751 L71.2150723,5.09944751 C73.2369806,5.09944751 75.7501635,6.35082873 77.2064345,7.98342541 C78.6774901,9.63259669 78.08386,10.9005525 75.5876667,10.9005525 L73.3637854,10.9005525 C72.8758931,10.9005525 72.306321,10.6187845 72.0738723,10.2624309 Z M73.4201232,9.74861878 L74.7193944,9.74861878 C76.0950932,9.74861878 76.4369504,9.0441989 75.5817973,8.01657459 L75.5680046,8 C74.7128515,6.97237569 73.2952857,6.25138122 72.0833446,6.25138122 L70.9387335,6.25138122 L73.4201232,9.74861878 Z" id="CHANGED-Copy" fill-opacity="0.6" fill="#000000"></path>
                </g>
                <g id="Group-20" transform="translate(80.000000, 0.000000)">
                    <g id="Group-3-Copy" transform="translate(0.000000, 45.000000)">
                        <g id="Rectangle-18-Copy" fill-rule="nonzero">
                            <use fill="#E5E5E5" xlink:href="#path-1"></use>
                            <use fill="#C7CFD5" xlink:href="#path-1"></use>
                        </g>
                        <g id="Group-25">
                            <g id="Group-8-Copy" transform="translate(0.191483, 0.437567)">
                                <g id="Group-2-Copy">
                                    <mask id="mask-3" fill="white">
                                        <use xlink:href="#path-2"></use>
                                    </mask>
                                    <use id="Rectangle-18-Copy" fill="#EFF7FD" fill-rule="nonzero" xlink:href="#path-2"></use>
                                    <g id="Group-17" mask="url(#mask-3)">
                                        <g transform="translate(49.000000, 26.000000)">
                                            <rect id="Rectangle-21-Copy-8" stroke="none" fill="#CED4D8" fill-rule="nonzero" x="205.09509" y="57.7269608" width="128.000004" height="8.96000027" rx="1.245565"></rect>
                                            <rect id="Rectangle-21-Copy-9" stroke="none" fill="#CED4D8" fill-rule="nonzero" x="205.09509" y="73.0869612" width="153.600005" height="8.96000027" rx="1.245565"></rect>
                                            <rect id="Rectangle-21-Copy-9" stroke="none" fill="#CED4D8" fill-rule="nonzero" x="205.09509" y="88.4469617" width="128.000004" height="8.96000027" rx="1.245565"></rect>
                                            <text id="Cool-New-Phone" stroke="none" fill="none" font-family="GothamRounded-Book, Gotham Rounded" font-size="19.2000006" font-weight="300">
                                                <tspan x="204.800003" y="47.0000005" fill="#8E9498">Cool New Phone</tspan>
                                            </text>
                                            <rect id="Rectangle-4" stroke="#0086FF" stroke-width="3.20000005" fill-opacity="0.3" fill="#0086FF" fill-rule="nonzero" x="197.600003" y="105.600002" width="85.6000013" height="36.8000005" rx="6.4000001"></rect>
                                            <text id="$-1,432" stroke="none" fill="none" font-family="GothamRounded-Bold, Gotham Rounded" font-size="19.2000006" font-weight="bold">
                                                <tspan x="205.164803" y="130.200002" fill="#0EBA61">$ 1,432</tspan>
                                            </text>
                                            <rect id="Rectangle-21-Copy-7" stroke="none" fill="#B2B9BF" fill-rule="nonzero" x="204.800003" y="166.400002" width="96.0000014" height="32.0000005" rx="3.20000005"></rect>
                                            <g id="Group-15" stroke="none" stroke-width="1" fill="none" fill-rule="evenodd" transform="translate(0.295084, 0.126959)">
                                                <rect id="Rectangle-3" fill="#C7CFD5" fill-rule="nonzero" x="0" y="0" width="128.000004" height="230.400007" rx="12.8000004"></rect>
                                                <rect id="Rectangle-3" fill-opacity="0.1" fill="#000000" fill-rule="nonzero" x="5.12000015" y="5.12000015" width="117.760004" height="220.160006" rx="8.32000025"></rect>
                                                <path d="M32.000001,1.28000004 L96.0000029,1.28000004 L96.0000029,5.76000017 C96.0000029,10.3550094 92.2750119,14.0800004 87.6800026,14.0800004 L40.3200012,14.0800004 C35.7249919,14.0800004 32.000001,10.3550094 32.000001,5.76000017 L32.000001,1.28000004 Z" id="Rectangle-6" fill="#C7CFD5" fill-rule="nonzero"></path>
                                            </g>
                                        </g>
                                    </g>
                                </g>
                            </g>
                        </g>
                    </g>
                    <g id="Group-18" transform="translate(152.000000, 0.000000)" fill-rule="nonzero">
                        <g id="Group-25-Copy-2">
                            <path d="M19.2213394,47.2881423 C21.889096,33.9808292 33.5485445,24.153631 47.3129788,24.153631 C50.3685457,24.153631 53.3618413,24.6466859 56.2199643,25.5950352 C63.1490609,8.72648549 79.5477466,-2.64102564 98.1275605,-2.64102564 C123.18938,-2.64102564 143.497717,17.8233299 143.497717,43.0546396 C143.497717,43.949064 143.465822,44.8520763 143.403381,45.7799712 C158.998312,48.7636853 170.616438,62.5675068 170.616438,78.9254239 C170.616438,95.2364253 159.05989,109.018351 143.497717,112.041918 L143.497717,112.669516 L30.890985,112.669516 C12.3787666,112.669516 -2.61893728,97.5565918 -2.61643836,78.9277188 C-2.61643836,64.6657449 6.24657439,52.1368978 19.2213394,47.2881423 Z" id="Shape-Copy-2" stroke="#DEE7EE" stroke-width="6" fill="#FFFFFF" stroke-linecap="round" stroke-linejoin="round"></path>
                            <g id="Group-24" transform="translate(60.347032, 40.427350)">
                                <ellipse id="Oval-3" fill="#DEE7EE" cx="24.6615931" cy="24.7293447" rx="24.6615931" ry="24.7293447"></ellipse>
                                <g id="Group-23" transform="translate(10.569254, 8.831909)">
                                    <path d="M13.7339446,29.7472593 C19.9481263,29.7472593 24.9857159,24.7835721 24.9857159,18.6605537 C24.9857159,12.5375352 20.4940598,7.04431754 20.4940598,2.44575937 C9.9240691,2.7103496 2.48217333,12.5375352 2.48217333,18.6605537 C2.48217333,24.7835721 7.51976294,29.7472593 13.7339446,29.7472593 Z" id="Oval-5" fill="#00B5FF" transform="translate(13.733945, 16.096509) rotate(-10.000000) translate(-13.733945, -16.096509) "></path>
                                    <g id="Group-47" transform="translate(2.482173, 8.560158)" stroke-linecap="square" stroke-linejoin="round" stroke-width="1.43504556">
                                        <ellipse id="Oval-7" stroke="url(#linearGradient-4)" fill-opacity="0.5" fill="#FFFFFF" cx="4.87875448" cy="4.89151874" rx="4.87875448" ry="4.89151874"></ellipse>
                                        <ellipse id="Oval-7-Copy" stroke="url(#linearGradient-4)" fill-opacity="0.5" fill="#FFFFFF" cx="18.7018922" cy="4.89151874" rx="4.87875448" ry="4.89151874"></ellipse>
                                        <path d="M13.0100119,3.76270672 C11.6627811,3.76270672 10.5706347,4.77347943 10.5706347,6.02033075" id="Oval-2" stroke="#000000" transform="translate(11.790323, 4.891519) rotate(-315.000000) translate(-11.790323, -4.891519) "></path>
                                    </g>
                                </g>
                            </g>
                        </g>
                    </g>
                </g>
                <g id="Group-57" transform="translate(0.000000, 205.000000)" fill-rule="nonzero">
                    <path d="M52.3725434,49.988987 C52.3725434,49.988987 62.1142133,68.2409869 57.2433784,86.4929869" id="Line-2" stroke="#149BD1" stroke-width="9.73440049" stroke-linecap="round" stroke-linejoin="round" transform="translate(55.489878, 68.240987) rotate(86.000000) translate(-55.489878, -68.240987) "></path>
                    <g id="Group-13" transform="translate(104.072934, 43.935109) rotate(-14.000000) translate(-104.072934, -43.935109) translate(60.572934, 10.435109)">
                        <path d="M7.61684937,15.500568 C2.8102885,19.3449778 2.8102885,36.9895724 7.61684937,40.8339821 C22.1666925,43.7373303 22.1811647,43.7402181 28.0299963,44.9073231 C29.8622899,45.2729481 29.8622899,45.2729481 30.5952074,45.4191981 C30.9616661,45.4923231 30.9616661,45.4923231 30.9616661,45.4923231 C30.9616661,45.4923231 30.9616661,45.4923231 31.3281248,45.5654481 C32.0610423,45.7116981 32.0610423,45.7116981 33.8933359,46.0773231 C39.728736,47.2417479 39.7565424,47.2472965 54.2064741,50.1307079 C65.3405581,41.4277637 65.3405581,14.9067864 54.2064741,6.20384227 C39.7565424,9.0872536 39.728736,9.09280224 33.8933359,10.257227 C32.0610423,10.622852 32.0610423,10.622852 31.3281248,10.769102 C30.9616661,10.842227 30.9616661,10.842227 30.9616661,10.842227 C30.9616661,10.842227 30.9616661,10.842227 30.5952074,10.915352 C29.8622899,11.061602 29.8622899,11.061602 28.0299963,11.427227 C22.1811647,12.594332 22.1666925,12.5972199 7.61684937,15.500568 Z" id="Rectangle-6-Copy" stroke-opacity="0.1" stroke="#000000" stroke-width="0.935999996" fill="#030303" transform="translate(33.284483, 28.167275) rotate(-10.000000) translate(-33.284483, -28.167275) "></path>
                        <path d="M18.7809193,25.3190759 C13.1917846,29.1453736 13.1917846,46.8122186 18.7809193,50.6385164 C35.647834,53.5466051 35.6609154,53.5488605 42.4338087,54.7166007 C44.5544337,55.0822257 44.5544337,55.0822257 45.4026837,55.2284757 C45.8268087,55.3016007 45.8268087,55.3016007 45.8268087,55.3016007 C45.8268087,55.3016007 45.8268087,55.3016007 72.7876846,59.9500276 C85.7297022,51.2634914 85.7297022,24.6941009 72.7875998,16.0075793 C45.8268087,20.6559916 45.8268087,20.6559916 45.8268087,20.6559916 C45.8268087,20.6559916 45.8268087,20.6559916 45.4026837,20.7291166 C44.5544337,20.8753666 44.5544337,20.8753666 42.4338087,21.2409916 C35.6609154,22.4087318 35.647834,22.4109872 18.7809193,25.3190759 Z" id="Rectangle-6" stroke-opacity="0.1" stroke="#000000" stroke-width="0.935999996" fill="#030303" transform="translate(48.541622, 37.978796) rotate(-10.000000) translate(-48.541622, -37.978796) "></path>
                        <path d="M15.468,32.1879999 L73.685064,13.422569" id="Line-6" stroke-opacity="0.3" stroke="#FFFFFF" stroke-width="5.61599997" stroke-linecap="square" stroke-linejoin="round"></path>
                    </g>
                    <path d="M47.7359998,148.551999 C74.0998645,148.551999 95.4719996,127.179864 95.4719996,100.816 C95.4719996,74.452135 79.6559985,35.453355 47.7359998,25 C33.4559985,44.453355 0,74.452135 0,100.816 C0,127.179864 21.3721351,148.551999 47.7359998,148.551999 Z" id="Oval-5" fill="#00B5FF" transform="translate(47.736000, 86.776000) scale(-1, 1) translate(-47.736000, -86.776000) "></path>
                    <path d="M65.3386208,66.3092242 L78.6969413,69.1695853 C80.7507729,70.1018779 81.7776887,71.9876242 81.7776887,74.8268242" id="Line" stroke="#000000" stroke-width="3.65040018" stroke-linecap="round" stroke-linejoin="round" transform="translate(73.558155, 70.568024) scale(-1, 1) rotate(15.000000) translate(-73.558155, -70.568024) "></path>
                    <path d="M88.3763435,60.9982341 C88.3763435,60.9982341 98.1180134,79.250234 93.2471784,97.5022339" id="Line-2" stroke="#1579B0" stroke-width="9.73440049" stroke-linecap="square" stroke-linejoin="round" transform="translate(91.493678, 79.250234) rotate(52.000000) translate(-91.493678, -79.250234) "></path>
                </g>
                <g id="Group-9" transform="translate(459.000000, 228.000000)">
                    <g id="Group-17" transform="translate(31.000000, 0.000000)" fill-rule="nonzero">
                        <path d="M15.4531604,51.1520587 C15.4531604,51.1520587 25.1948303,69.4040586 20.3239953,87.6560586" id="Line-2" stroke="#1579B0" stroke-width="9.73440049" stroke-linecap="square" stroke-linejoin="round" transform="translate(18.570495, 69.404059) rotate(112.000000) translate(-18.570495, -69.404059) "></path>
                        <path d="M75.7359998,117.551998 C102.099864,117.551998 123.472,96.1798624 123.472,69.8159977 C123.472,43.452133 104.416005,19.8 104.416005,0 C75.1057072,0 28,43.452133 28,69.8159977 C28,96.1798624 49.3721351,117.551998 75.7359998,117.551998 Z" id="Oval-5" fill="#00B5FF"></path>
                        <path d="M107,81 C107,81 116.74167,99.2519999 111.870835,117.504" id="Line-2" stroke="#1579B0" stroke-width="9.73440049" stroke-linecap="square" stroke-linejoin="round"></path>
                        <g id="Group-8" transform="translate(68.092805, 48.396988) rotate(5.000000) translate(-68.092805, -48.396988) translate(30.592805, 32.396988)" stroke-linejoin="round" stroke-width="3.65040018">
                            <ellipse id="Oval" stroke="url(#linearGradient-4)" fill-opacity="0.5" fill="#FFFFFF" stroke-linecap="square" cx="44.3947961" cy="15.8183999" rx="13.3947961" ry="15.8183999"></ellipse>
                            <ellipse id="Oval" stroke="url(#linearGradient-4)" fill-opacity="0.5" fill="#FFFFFF" stroke-linecap="square" cx="10.3505242" cy="15.8183999" rx="10.3505242" ry="15.8183999"></ellipse>
                            <path d="M28.1067888,14.4940407 C25.345365,14.4940407 23.1067888,16.7309464 23.1067888,19.4903094" id="Oval-2" stroke="#000000" stroke-linecap="square" transform="translate(25.606789, 16.992175) rotate(-315.000000) translate(-25.606789, -16.992175) "></path>
                            <path d="M58,17 L71.3583205,19.8603611 C73.4121521,20.7926537 74.4390679,22.6784 74.4390679,25.5176" id="Line" stroke="#000000" stroke-linecap="round"></path>
                        </g>
                    </g>
                    <path d="M-1.13686838e-13,35 C16,31 34,28 41,35 C45.6666667,48.3333333 45.6666667,66.6666667 41,90 L4,95 C8,63 6.66666667,43 -1.13686838e-13,35 Z" id="Rectangle-25" fill="#FFFFFF" fill-rule="nonzero"></path>
                    <text id="Original" transform="translate(22.207376, 42.568762) rotate(-12.000000) translate(-22.207376, -42.568762) " font-family="GTWalsheimProTrial-Medium, GT Walsheim Pro Trial" font-size="10" font-weight="400" fill="#77BEFF">
                        <tspan x="3.92237642" y="45.5687615">Original</tspan>
                    </text>
                </g>
                <g id="Group-3" transform="translate(302.000000, 282.000000)" fill-rule="nonzero">
                    <g id="Group-17-Copy">
                        <path d="M13.3496078,44.3590088 C13.3496078,44.3590088 23.0912777,62.6110087 18.2204427,80.8630086" id="Line-2" stroke="#1579B0" stroke-width="9.73440049" stroke-linecap="square" stroke-linejoin="round" transform="translate(16.466942, 62.611009) rotate(132.000000) translate(-16.466942, -62.611009) "></path>
                        <path d="M115,68 C115,68 124.74167,86.2519999 119.870835,104.504" id="Line-2" stroke="#1579B0" stroke-width="9.73440049" stroke-linecap="square" stroke-linejoin="round"></path>
                        <path d="M74.7359998,123.551999 C101.099864,123.551999 122.472,102.179864 122.472,75.8159997 C122.472,49.452135 91.0800034,29.9760021 74.7359998,0 C50.2800034,19.7760021 27,49.452135 27,75.8159997 C27,102.179864 48.3721351,123.551999 74.7359998,123.551999 Z" id="Oval-5" fill="#00B5FF"></path>
                    </g>
                </g>
            </g>
        </g>
    </g>
</svg>